<svg xmlns="http://www.w3.org/2000/svg" width="54" height="48" viewBox="0 0 54 48" fill="none"><circle cx="13" cy="34.53" r="13" fill="#E3C8A7"/><path d="M53.3116 39.6565C53.4289 39.6565 53.5442 39.6265 53.6467 39.5694C53.7492 39.5123 53.8354 39.4299 53.8971 39.3302C53.9588 39.2304 53.994 39.1165 53.9993 38.9993C54.0046 38.8821 53.9799 38.7655 53.9275 38.6605L52.5992 36.003C52.3906 35.5828 52.0685 35.2294 51.6694 34.9828C51.2703 34.7362 50.8101 34.6062 50.341 34.6077H46.1844C45.7153 34.6062 45.2551 34.7362 44.856 34.9828C44.4569 35.2294 44.1348 35.5828 43.9262 36.003L42.7879 38.2796H18.2121L17.0738 36.003C16.8653 35.5826 16.5433 35.2291 16.1442 34.9825C15.745 34.7359 15.2848 34.606 14.8156 34.6077H10.659C10.1899 34.6062 9.72969 34.7362 9.33059 34.9828C8.93149 35.2294 8.6094 35.5828 8.4008 36.003L7.0725 38.6605C7.02009 38.7655 6.99538 38.8821 7.00071 38.9993C7.00604 39.1165 7.04122 39.2304 7.10293 39.3302C7.16463 39.4299 7.25081 39.5123 7.35329 39.5694C7.45577 39.6265 7.57114 39.6565 7.68845 39.6565H13.255L13.8288 40.804L13.255 41.9514H7.68845C7.57114 41.9514 7.45577 41.9814 7.35329 42.0385C7.25081 42.0957 7.16463 42.178 7.10293 42.2778C7.04122 42.3776 7.00604 42.4915 7.00071 42.6087C6.99538 42.7259 7.02009 42.8425 7.0725 42.9474L8.4008 45.605C8.6094 46.0252 8.93149 46.3786 9.33059 46.6252C9.72969 46.8718 10.1899 47.0017 10.659 47.0003H14.8156C15.2848 47.0019 15.745 46.8721 16.1442 46.6255C16.5433 46.3788 16.8653 46.0253 17.0738 45.605L18.2121 43.3284H42.7879L43.9262 45.605C44.1347 46.0253 44.4567 46.3788 44.8559 46.6255C45.255 46.8721 45.7153 47.0019 46.1844 47.0003H50.341C50.8102 47.0019 51.2705 46.8721 51.6696 46.6255C52.0687 46.3788 52.3908 46.0253 52.5992 45.605L53.9275 42.9474C53.9799 42.8425 54.0046 42.7259 53.9993 42.6087C53.994 42.4915 53.9588 42.3776 53.8971 42.2778C53.8354 42.178 53.7492 42.0957 53.6467 42.0385C53.5442 41.9814 53.4289 41.9514 53.3116 41.9514H47.745L47.1713 40.804L47.745 39.6565H53.3116ZM46.7022 38.6605L45.7842 40.4965C45.7367 40.592 45.7119 40.6973 45.7119 40.804C45.7119 40.9107 45.7367 41.016 45.7842 41.1115L46.7022 42.9474C46.7592 43.062 46.8471 43.1583 46.9559 43.2256C47.0647 43.2929 47.1902 43.3285 47.3181 43.3284H52.1962L51.3701 44.989C51.2751 45.1804 51.1283 45.3414 50.9463 45.4535C50.7644 45.5656 50.5547 45.6245 50.341 45.6233H46.1844C45.9712 45.624 45.7621 45.5649 45.5807 45.4528C45.3993 45.3407 45.2529 45.18 45.1581 44.989L43.8298 42.3324C43.7728 42.2179 43.6849 42.1215 43.5761 42.0542C43.4673 41.9869 43.3418 41.9513 43.2139 41.9514H17.7861C17.6582 41.9513 17.5327 41.9869 17.4239 42.0542C17.3151 42.1215 17.2272 42.2179 17.1702 42.3324L15.8419 44.989C15.7471 45.18 15.6007 45.3407 15.4193 45.4528C15.2379 45.5649 15.0288 45.624 14.8156 45.6233H10.659C10.4458 45.624 10.2366 45.5649 10.0553 45.4528C9.87387 45.3407 9.7275 45.18 9.63271 44.989L8.80654 43.3284H13.681C13.8089 43.3285 13.9343 43.2929 14.0432 43.2256C14.152 43.1583 14.2399 43.062 14.2969 42.9474L15.2149 41.1115C15.2624 41.016 15.2872 40.9107 15.2872 40.804C15.2872 40.6973 15.2624 40.592 15.2149 40.4965L14.2969 38.6605C14.2399 38.546 14.152 38.4497 14.0432 38.3824C13.9343 38.3151 13.8089 38.2795 13.681 38.2796H8.80287L9.62904 36.619C9.7241 36.4274 9.87105 36.2664 10.0531 36.1542C10.2352 36.0421 10.4452 35.9833 10.659 35.9846H14.8156C15.0288 35.984 15.2379 36.0431 15.4193 36.1552C15.6007 36.2673 15.7471 36.428 15.8419 36.619L17.1702 39.2756C17.2272 39.3901 17.3151 39.4864 17.4239 39.5537C17.5327 39.621 17.6582 39.6566 17.7861 39.6565H43.2139C43.3418 39.6566 43.4673 39.621 43.5761 39.5537C43.6849 39.4864 43.7728 39.3901 43.8298 39.2756L45.1581 36.619C45.2529 36.428 45.3993 36.2673 45.5807 36.1552C45.7621 36.0431 45.9712 35.984 46.1844 35.9846H50.341C50.5542 35.984 50.7634 36.0431 50.9448 36.1552C51.1261 36.2673 51.2725 36.428 51.3673 36.619L52.1935 38.2796H47.319C47.1911 38.2795 47.0657 38.3151 46.9568 38.3824C46.848 38.4497 46.7601 38.546 46.7031 38.6605H46.7022Z" fill="#30373E"/><path d="M53.3116 3.67191H36.6614L30.8608 0.101929C30.7523 0.0352809 30.6274 0 30.5 0C30.3727 0 30.2478 0.0352809 30.1393 0.101929L24.3386 3.67191H13.8848V0.688512C13.8848 0.505916 13.8122 0.330799 13.6831 0.201685C13.554 0.0725702 13.3789 3.44249e-05 13.1963 3.44249e-05H10.4424C9.52971 0.0010064 8.65469 0.363998 8.00933 1.00936C7.36396 1.65472 7.00097 2.52974 7 3.44242V29.1456C7.00097 30.0583 7.36396 30.9333 8.00933 31.5786C8.65469 32.224 9.52971 32.587 10.4424 32.588H53.3116C53.4942 32.588 53.6693 32.5154 53.7984 32.3863C53.9275 32.2572 54.0001 32.0821 54.0001 31.8995V4.36039C54.0001 4.1778 53.9275 4.00268 53.7984 3.87356C53.6693 3.74445 53.4942 3.67191 53.3116 3.67191ZM30.5 1.49724L41.7452 8.4169V10.4722L30.8608 3.77105C30.7523 3.70441 30.6274 3.66913 30.5 3.66913C30.3727 3.66913 30.2478 3.70441 30.1393 3.77105L19.2549 10.4722V8.4169L30.5 1.49724ZM41.7452 22.3526V23.7296H19.2549V22.3526H41.7452ZM21.0908 20.9756V10.9588L30.5 5.16912L39.9092 10.9588V20.9756H21.0908ZM8.37695 3.44242C8.37744 2.89478 8.5952 2.36972 8.98244 1.98248C9.36968 1.59524 9.89475 1.37748 10.4424 1.37699H12.5078V25.7032H10.4424C9.69713 25.7024 8.97196 25.9448 8.37695 26.3935V3.44242ZM52.6231 31.211H10.4424C9.8946 31.211 9.36925 30.9934 8.98191 30.6061C8.59456 30.2187 8.37695 29.6934 8.37695 29.1456C8.37695 28.5978 8.59456 28.0724 8.98191 27.6851C9.36925 27.2978 9.8946 27.0801 10.4424 27.0801H13.1963C13.3789 27.0801 13.554 27.0076 13.6831 26.8785C13.8122 26.7494 13.8848 26.5743 13.8848 26.3917V5.04887H22.1006L18.2057 7.44569C18.1055 7.50739 18.0229 7.59368 17.9655 7.69635C17.9081 7.79902 17.878 7.91466 17.8779 8.03227V11.7042C17.8779 11.8267 17.9106 11.9469 17.9725 12.0526C18.0345 12.1583 18.1235 12.2455 18.2305 12.3053C18.3374 12.3651 18.4583 12.3952 18.5808 12.3927C18.7033 12.3901 18.8228 12.3549 18.9272 12.2907L19.7139 11.806V20.9756H18.5664C18.3838 20.9756 18.2087 21.0482 18.0796 21.1773C17.9505 21.3064 17.8779 21.4815 17.8779 21.6641V24.418C17.8779 24.6006 17.9505 24.7757 18.0796 24.9049C18.2087 25.034 18.3838 25.1065 18.5664 25.1065H42.4336C42.6162 25.1065 42.7914 25.034 42.9205 24.9049C43.0496 24.7757 43.1221 24.6006 43.1221 24.418V21.6641C43.1221 21.4815 43.0496 21.3064 42.9205 21.1773C42.7914 21.0482 42.6162 20.9756 42.4336 20.9756H41.2862V11.806L42.0729 12.2907C42.1772 12.3549 42.2968 12.3901 42.4193 12.3927C42.5417 12.3952 42.6627 12.3651 42.7696 12.3053C42.8765 12.2455 42.9656 12.1583 43.0275 12.0526C43.0895 11.9469 43.1222 11.8267 43.1221 11.7042V8.03227C43.1221 7.91466 43.0919 7.79902 43.0346 7.69635C42.9772 7.59368 42.8945 7.50739 42.7944 7.44569L38.8995 5.04887H52.6231V31.211Z" fill="#30373E"/><path d="M34.1719 10.488H26.8281C26.6455 10.488 26.4704 10.5606 26.3413 10.6897C26.2122 10.8188 26.1396 10.9939 26.1396 11.1765V18.5203C26.1396 18.7029 26.2122 18.878 26.3413 19.0071C26.4704 19.1362 26.6455 19.2088 26.8281 19.2088H34.1719C34.3545 19.2088 34.5296 19.1362 34.6587 19.0071C34.7878 18.878 34.8604 18.7029 34.8604 18.5203V11.1765C34.8604 10.9939 34.7878 10.8188 34.6587 10.6897C34.5296 10.5606 34.3545 10.488 34.1719 10.488ZM33.4834 14.1599H31.1885V11.865H33.4834V14.1599ZM29.8115 11.865V14.1599H27.5166V11.865H29.8115ZM27.5166 15.5369H29.8115V17.8318H27.5166V15.5369ZM31.1885 17.8318V15.5369H33.4834V17.8318H31.1885Z" fill="#30373E"/></svg>