<svg xmlns="http://www.w3.org/2000/svg" width="68" height="50" viewBox="0 0 68 50" fill="none"><circle cx="13" cy="36.53" r="13" fill="#E3C8A7"/><path fill-rule="evenodd" clip-rule="evenodd" d="M57.1934 49.5959H16.9122C16.4201 49.5959 16.0334 49.2092 16.0334 48.7171V42.5308C16.0334 42.0387 16.4201 41.6521 16.9122 41.6521H57.1934C57.6855 41.6521 58.0721 42.0387 58.0721 42.5308V48.7171C58.037 49.2092 57.6152 49.5959 57.1934 49.5959ZM17.7558 47.8735H56.3146V43.4096H17.7558V47.8735Z" fill="#30373E"/><path fill-rule="evenodd" clip-rule="evenodd" d="M56.5255 49.5958C56.174 49.5958 55.8225 49.3497 55.6819 48.9983C55.5413 48.5765 55.7874 48.0844 56.2092 47.9438L63.3796 45.5536L56.2795 43.4095C55.8225 43.2338 55.5413 42.7768 55.6819 42.3199C55.8225 41.8981 56.3146 41.5817 56.7716 41.7223L66.4728 44.6749C66.7891 44.7452 67.0352 45.0967 67.0352 45.4482C67.0352 45.8348 66.7891 46.116 66.4728 46.2566L56.7716 49.5255C56.7013 49.5958 56.5958 49.5958 56.5255 49.5958Z" fill="#30373E"/><path fill-rule="evenodd" clip-rule="evenodd" d="M16.2443 49.5959H7.87873C7.42179 49.5959 7 49.2092 7 48.7171V42.5308C7 42.0387 7.42179 41.6521 7.87873 41.6521H16.2443C16.7364 41.6521 17.123 42.0387 17.123 42.5308C17.123 42.9878 16.7364 43.4096 16.2443 43.4096H8.75747V47.8735H16.2443C16.7364 47.8735 17.123 48.2602 17.123 48.7523C17.123 49.2444 16.7364 49.5959 16.2443 49.5959Z" fill="#30373E"/><path fill-rule="evenodd" clip-rule="evenodd" d="M17.4394 39.7539H8.61689C8.1248 39.7539 7.73816 39.3321 7.73816 38.8752V7.02986C7.73816 6.53777 8.1248 6.15112 8.61689 6.15112H17.4394C17.9315 6.15112 18.3181 6.53777 18.3181 7.02986V38.9103C18.3181 39.3321 17.9315 39.7539 17.4394 39.7539ZM9.49563 38.0316H16.631V7.83829H9.49563V38.0316Z" fill="#30373E"/><path fill-rule="evenodd" clip-rule="evenodd" d="M12.2373 37.0475H8.61689C8.1248 37.0475 7.73816 36.6609 7.73816 36.1688C7.73816 35.6767 8.1248 35.29 8.61689 35.29H12.2373C12.7294 35.29 13.116 35.6767 13.116 36.1688C13.116 36.6609 12.7294 37.0475 12.2373 37.0475Z" fill="#30373E"/><path fill-rule="evenodd" clip-rule="evenodd" d="M11.0071 34.3761H8.61689C8.1248 34.3761 7.73816 33.9895 7.73816 33.4974C7.73816 33.0053 8.1248 32.6187 8.61689 32.6187H11.0071C11.4991 32.6187 11.8858 33.0053 11.8858 33.4974C11.8858 33.9895 11.4991 34.3761 11.0071 34.3761Z" fill="#30373E"/><path fill-rule="evenodd" clip-rule="evenodd" d="M11.0071 29.1037H8.61689C8.1248 29.1037 7.73816 28.717 7.73816 28.2249C7.73816 27.7328 8.1248 27.3462 8.61689 27.3462H11.0071C11.4991 27.3462 11.8858 27.7328 11.8858 28.2249C11.8858 28.717 11.4991 29.1037 11.0071 29.1037Z" fill="#30373E"/><path fill-rule="evenodd" clip-rule="evenodd" d="M11.0071 23.796H8.61689C8.1248 23.796 7.73816 23.4094 7.73816 22.9173C7.73816 22.4252 8.1248 22.0386 8.61689 22.0386H11.0071C11.4991 22.0386 11.8858 22.4252 11.8858 22.9173C11.8858 23.4094 11.4991 23.796 11.0071 23.796Z" fill="#30373E"/><path fill-rule="evenodd" clip-rule="evenodd" d="M11.0071 18.4887H8.61689C8.1248 18.4887 7.73816 18.102 7.73816 17.6099C7.73816 17.1178 8.1248 16.7312 8.61689 16.7312H11.0071C11.4991 16.7312 11.8858 17.1178 11.8858 17.6099C11.8858 18.102 11.4991 18.4887 11.0071 18.4887Z" fill="#30373E"/><path fill-rule="evenodd" clip-rule="evenodd" d="M11.0071 13.2162H8.61689C8.1248 13.2162 7.73816 12.8296 7.73816 12.3375C7.73816 11.8454 8.1248 11.4587 8.61689 11.4587H11.0071C11.4991 11.4587 11.8858 11.8454 11.8858 12.3375C11.8858 12.8296 11.4991 13.2162 11.0071 13.2162Z" fill="#30373E"/><path fill-rule="evenodd" clip-rule="evenodd" d="M12.2373 31.7399H8.61689C8.1248 31.7399 7.73816 31.3532 7.73816 30.8612C7.73816 30.3691 8.1248 29.9824 8.61689 29.9824H12.2373C12.7294 29.9824 13.116 30.3691 13.116 30.8612C13.116 31.3532 12.7294 31.7399 12.2373 31.7399Z" fill="#30373E"/><path fill-rule="evenodd" clip-rule="evenodd" d="M12.2373 26.4323H8.61689C8.1248 26.4323 7.73816 26.0456 7.73816 25.5535C7.73816 25.0614 8.1248 24.6748 8.61689 24.6748H12.2373C12.7294 24.6748 13.116 25.0614 13.116 25.5535C13.116 26.0456 12.7294 26.4323 12.2373 26.4323Z" fill="#30373E"/><path fill-rule="evenodd" clip-rule="evenodd" d="M12.2373 21.1598H8.61689C8.1248 21.1598 7.73816 20.7732 7.73816 20.2811C7.73816 19.789 8.1248 19.4023 8.61689 19.4023H12.2373C12.7294 19.4023 13.116 19.789 13.116 20.2811C13.116 20.7732 12.7294 21.1598 12.2373 21.1598Z" fill="#30373E"/><path fill-rule="evenodd" clip-rule="evenodd" d="M12.2373 15.8524H8.61689C8.1248 15.8524 7.73816 15.4658 7.73816 14.9737C7.73816 14.4816 8.1248 14.095 8.61689 14.095H12.2373C12.7294 14.095 13.116 14.4816 13.116 14.9737C13.116 15.4658 12.7294 15.8524 12.2373 15.8524Z" fill="#30373E"/><path fill-rule="evenodd" clip-rule="evenodd" d="M12.2373 10.58H8.61689C8.1248 10.58 7.73816 10.1933 7.73816 9.70124C7.73816 9.20915 8.1248 8.82251 8.61689 8.82251H12.2373C12.7294 8.82251 13.116 9.20915 13.116 9.70124C13.116 10.1933 12.7294 10.58 12.2373 10.58Z" fill="#30373E"/><path fill-rule="evenodd" clip-rule="evenodd" d="M60.1107 39.7891H21.0598C20.5677 39.7891 20.181 39.4024 20.181 38.9103V6.92439C20.181 6.4323 20.5677 6.04565 21.0598 6.04565H54.065C54.5571 6.04565 54.9438 6.4323 54.9438 6.92439C54.9438 7.41648 54.5571 7.80312 54.065 7.80312H21.9034V38.137H60.1107C62.5712 38.137 64.6099 36.0632 64.6099 33.6379V30.5799C64.6099 30.0878 64.9965 29.7012 65.4886 29.7012C65.9807 29.7012 66.3673 30.0878 66.3673 30.5799V33.6379C66.297 37.0123 63.5202 39.7891 60.1107 39.7891Z" fill="#30373E"/><path fill-rule="evenodd" clip-rule="evenodd" d="M47.0352 22.2143H28.1248C27.4921 22.2143 26.9649 21.898 26.7188 21.3708C26.4377 20.6678 26.6134 19.7539 27.1406 19.1563L36.0686 10.2284C36.8419 9.45512 38.283 9.45512 39.0914 10.2284L48.0194 19.1563C48.5466 19.6836 48.7927 20.6678 48.5115 21.3708C48.2303 21.898 47.6679 22.2143 47.0352 22.2143ZM28.2303 20.5272H46.8594C46.8594 20.4217 46.7891 20.3866 46.754 20.3163L46.5782 20.1405L37.8964 11.4235C37.7206 11.2477 37.334 11.318 37.2637 11.4235L28.3357 20.3163C28.2654 20.3163 28.2654 20.4217 28.2303 20.5272Z" fill="#30373E"/><path fill-rule="evenodd" clip-rule="evenodd" d="M46.5079 36.2742H28.6169C28.1248 36.2742 27.7382 35.8876 27.7382 35.3955V21.3006C27.7382 20.8085 28.1248 20.4219 28.6169 20.4219C29.109 20.4219 29.4956 20.8085 29.4956 21.3006V34.5168H45.6292V21.3006C45.6292 20.8085 46.0158 20.4219 46.5079 20.4219C47 20.4219 47.3867 20.8085 47.3867 21.3006V35.3955C47.3515 35.9228 46.9649 36.2742 46.5079 36.2742Z" fill="#30373E"/><path fill-rule="evenodd" clip-rule="evenodd" d="M40.9543 36.2742C40.4622 36.2742 40.0756 35.8875 40.0756 35.3954V29.2091H35.0492V35.3954C35.0492 35.8875 34.6626 36.2742 34.1705 36.2742C33.6784 36.2742 33.2917 35.8875 33.2917 35.3954V28.3304C33.2917 27.8383 33.6784 27.4517 34.1705 27.4517H40.9543C41.4464 27.4517 41.833 27.8383 41.833 28.3304V35.3954C41.833 35.9227 41.4464 36.2742 40.9543 36.2742Z" fill="#30373E"/><path fill-rule="evenodd" clip-rule="evenodd" d="M65.4886 31.3884C64.9965 31.3884 64.6098 31.0018 64.6098 30.5097C64.6098 27.8383 62.4657 25.6942 59.7944 25.6942C57.0879 25.6942 54.9086 27.8383 54.9086 30.5097C54.9086 31.0018 54.5219 31.3884 54.0299 31.3884C53.5378 31.3884 53.1511 31.0018 53.1511 30.5097V6.53779C53.1511 2.9174 56.0685 0 59.7241 0C63.3444 0 66.2618 2.9174 66.2618 6.53779V30.58C66.297 31.0721 65.9103 31.3884 65.4886 31.3884ZM59.7944 1.68717C57.0879 1.68717 54.9086 3.83128 54.9086 6.53779V26.1863C56.1037 24.8506 57.826 24.0422 59.7944 24.0422C61.6924 24.0422 63.4499 24.8506 64.6098 26.1863V6.53779C64.6098 3.83128 62.4657 1.68717 59.7944 1.68717Z" fill="#30373E"/></svg>