<svg xmlns="http://www.w3.org/2000/svg" width="67" height="48" viewBox="0 0 67 48" fill="none"><circle cx="13" cy="34.53" r="13" fill="#E3C8A7"/><path d="M22.8934 40.2767C22.52 40.2767 22.2267 39.9833 22.2267 39.61V17.1033C22.2267 16.89 22.32 16.69 22.4934 16.57L40.5467 3.13C40.7867 2.95667 41.1067 2.95667 41.3467 3.13L59.4 16.57C59.5734 16.69 59.6667 16.89 59.6667 17.1033V20.25C59.6667 20.6233 59.3734 20.9167 59 20.9167C58.6267 20.9167 58.3334 20.6233 58.3334 20.25V17.4367L40.9467 4.49L23.56 17.45V39.61C23.56 39.9833 23.2667 40.2767 22.8934 40.2767Z" fill="#30373E"/><path d="M55.16 11.65C54.7866 11.65 54.4933 11.3566 54.4933 10.9833V4.87663C54.4933 4.50329 54.7866 4.20996 55.16 4.20996C55.5333 4.20996 55.8266 4.50329 55.8266 4.87663V10.9833C55.8266 11.3566 55.5333 11.65 55.16 11.65Z" fill="#30373E"/><path d="M51.56 9.03663C51.1866 9.03663 50.8933 8.7433 50.8933 8.36996V4.87663C50.8933 4.50329 51.1866 4.20996 51.56 4.20996C51.9333 4.20996 52.2266 4.50329 52.2266 4.87663V8.36996C52.2266 8.72996 51.92 9.03663 51.56 9.03663Z" fill="#30373E"/><path d="M56.4533 5.52995H50.2666C49.8933 5.52995 49.6 5.23661 49.6 4.86328V2.52995C49.6 2.15661 49.8933 1.86328 50.2666 1.86328H56.4533C56.8266 1.86328 57.12 2.15661 57.12 2.52995V4.86328C57.12 5.23661 56.8133 5.52995 56.4533 5.52995ZM50.9333 4.19661H55.7866V3.19661H50.9333V4.19661Z" fill="#30373E"/><path d="M43.1066 33.5702C43.0666 33.5702 43.0133 33.5702 42.9733 33.5569C42.9333 33.5436 42.8933 33.5302 42.8533 33.5169C42.8133 33.5036 42.7733 33.4769 42.7333 33.4502C42.6933 33.4236 42.6666 33.3969 42.6266 33.3702C42.5066 33.2502 42.4266 33.0769 42.4266 32.9036C42.4266 32.7302 42.4933 32.5569 42.6266 32.4369C42.6533 32.4102 42.6933 32.3836 42.7333 32.3569C42.7733 32.3302 42.8133 32.3169 42.8533 32.2902C42.8933 32.2769 42.9333 32.2636 42.9733 32.2502C43.0533 32.2369 43.1466 32.2369 43.24 32.2502L43.36 32.2902C43.4 32.3036 43.44 32.3302 43.48 32.3569C43.52 32.3836 43.5466 32.4102 43.5866 32.4369C43.7066 32.5569 43.7866 32.7302 43.7866 32.9036C43.7866 33.0769 43.72 33.2502 43.5866 33.3702C43.56 33.3969 43.52 33.4236 43.48 33.4502C43.44 33.4769 43.4 33.4902 43.36 33.5169C43.32 33.5302 43.28 33.5436 43.24 33.5569C43.2 33.5702 43.16 33.5702 43.1066 33.5702Z" fill="#30373E"/><path d="M36.6399 40.2768C36.2666 40.2768 35.9733 39.9835 35.9733 39.6101V26.2101C35.9733 25.8368 36.2666 25.5435 36.6399 25.5435H45.2399C45.6133 25.5435 45.9066 25.8368 45.9066 26.2101V33.9301C45.9066 34.3035 45.6133 34.5968 45.2399 34.5968C44.8666 34.5968 44.5733 34.3035 44.5733 33.9301V26.8768H37.3066V39.6101C37.3066 39.9835 37.0133 40.2768 36.6399 40.2768Z" fill="#30373E"/><path d="M63.6133 17.7833H59C58.6266 17.7833 58.3333 17.49 58.3333 17.1167C58.3333 16.7433 58.6266 16.45 59 16.45H61.56L40.9466 1.49L20.3333 16.45H22.8933C23.2666 16.45 23.56 16.7433 23.56 17.1167C23.56 17.49 23.2666 17.7833 22.8933 17.7833H18.28C17.9866 17.7833 17.7333 17.5967 17.64 17.3167C17.5466 17.0367 17.6533 16.7433 17.88 16.57L40.5466 0.13C40.7866 -0.0433333 41.0933 -0.0433333 41.3333 0.13L64 16.57C64.24 16.7433 64.3333 17.0367 64.24 17.3167C64.1466 17.5967 63.9066 17.7833 63.6133 17.7833Z" fill="#30373E"/><path d="M52.3466 24.4234H45.4533C45.08 24.4234 44.7866 24.1301 44.7866 23.7568V16.8634C44.7866 16.4901 45.08 16.1968 45.4533 16.1968H52.3466C52.72 16.1968 53.0133 16.4901 53.0133 16.8634V23.7568C53.0133 24.1301 52.72 24.4234 52.3466 24.4234ZM46.12 23.0901H51.68V17.5301H46.12V23.0901Z" fill="#30373E"/><path d="M48.9067 24.4234C48.5333 24.4234 48.24 24.1301 48.24 23.7568V16.8634C48.24 16.4901 48.5333 16.1968 48.9067 16.1968C49.28 16.1968 49.5733 16.4901 49.5733 16.8634V23.7568C49.5733 24.1301 49.2667 24.4234 48.9067 24.4234Z" fill="#30373E"/><path d="M36.4266 24.4234H29.5332C29.1599 24.4234 28.8666 24.1301 28.8666 23.7568V16.8634C28.8666 16.4901 29.1599 16.1968 29.5332 16.1968H36.4266C36.7999 16.1968 37.0932 16.4901 37.0932 16.8634V23.7568C37.0932 24.1301 36.7999 24.4234 36.4266 24.4234ZM30.2132 23.0901H35.7732V17.5301H30.2132V23.0901Z" fill="#30373E"/><path d="M32.9866 24.4234C32.6133 24.4234 32.3199 24.1301 32.3199 23.7568V16.8634C32.3199 16.4901 32.6133 16.1968 32.9866 16.1968C33.3599 16.1968 33.6533 16.4901 33.6533 16.8634V23.7568C33.6533 24.1301 33.3599 24.4234 32.9866 24.4234Z" fill="#30373E"/><path d="M36.4266 20.9835H29.5332C29.1599 20.9835 28.8666 20.6901 28.8666 20.3168C28.8666 19.9435 29.1599 19.6501 29.5332 19.6501H36.4266C36.7999 19.6501 37.0932 19.9435 37.0932 20.3168C37.0932 20.6901 36.7999 20.9835 36.4266 20.9835Z" fill="#30373E"/><path d="M52.3466 20.9835H45.4533C45.08 20.9835 44.7866 20.6901 44.7866 20.3168C44.7866 19.9435 45.08 19.6501 45.4533 19.6501H52.3466C52.72 19.6501 53.0133 19.9435 53.0133 20.3168C53.0133 20.6901 52.72 20.9835 52.3466 20.9835Z" fill="#30373E"/><path d="M40.9466 15.09C38.9066 15.09 37.2533 13.4367 37.2533 11.3967C37.2533 9.3567 38.9066 7.70337 40.9466 7.70337C42.9866 7.70337 44.64 9.3567 44.64 11.3967C44.64 13.4234 42.9866 15.09 40.9466 15.09ZM40.9466 9.0367C39.64 9.0367 38.5866 10.09 38.5866 11.3967C38.5866 12.7034 39.64 13.7567 40.9466 13.7567C42.2533 13.7567 43.3066 12.7034 43.3066 11.3967C43.3066 10.09 42.2533 9.0367 40.9466 9.0367Z" fill="#30373E"/><path d="M39.6534 42.8367H21.1867C20.8134 42.8367 20.52 42.5434 20.52 42.17V39.61C20.52 39.2367 20.8134 38.9434 21.1867 38.9434H40.9867C41.36 38.9434 41.6534 39.2367 41.6534 39.61C41.6534 39.9834 41.36 40.2767 40.9867 40.2767H21.8534V41.5034H39.6534C40.0267 41.5034 40.32 41.7967 40.32 42.17C40.32 42.5434 40.0134 42.8367 39.6534 42.8367Z" fill="#30373E"/><path d="M65.6666 46.9301H43.1199C42.8533 46.9301 42.6133 46.7701 42.5066 46.5167C42.3999 46.2634 42.4666 45.9834 42.6533 45.7967L65.1999 23.2501C65.3866 23.0634 65.6799 22.9967 65.9199 23.1034C66.1733 23.2101 66.3333 23.4501 66.3333 23.7167V46.2634C66.3333 46.6234 66.0399 46.9301 65.6666 46.9301ZM44.7333 45.5967H64.9999V25.3167L44.7333 45.5967Z" fill="#30373E"/><path d="M61.5732 42.8233H53.0132C52.7466 42.8233 52.5066 42.6633 52.3999 42.4099C52.2932 42.1566 52.3599 41.8766 52.5466 41.6899L61.1066 33.1299C61.2932 32.9433 61.5866 32.8766 61.8266 32.9833C62.0799 33.0899 62.2399 33.3299 62.2399 33.5966V42.1566C62.2399 42.5299 61.9332 42.8233 61.5732 42.8233ZM54.6132 41.4899H60.8932V35.2099L54.6132 41.4899Z" fill="#30373E"/><path d="M39.36 43.37C39.1866 43.37 39.0133 43.3033 38.8933 43.17C38.6933 42.97 38.64 42.65 38.7733 42.3833L41.9733 36.2766C42 36.2233 42.04 36.1566 42.0933 36.1166L58.1333 20.0766C59.1866 19.0233 60.92 19.0233 61.9733 20.0766C63.0266 21.13 63.0266 22.8633 61.9733 23.9166L45.9466 39.97C45.8933 40.0233 45.84 40.0633 45.7866 40.09L39.68 43.29C39.5733 43.3433 39.4666 43.37 39.36 43.37ZM43.12 36.9966L40.96 41.1166L45.08 38.9566L61.0533 22.9833C61.5866 22.45 61.5866 21.57 61.0533 21.0233C60.52 20.49 59.64 20.49 59.0933 21.0233L43.12 36.9966Z" fill="#30373E"/><path d="M45.4666 40.1698C45.2933 40.1698 45.12 40.1032 45 39.9698L42.0933 37.0632C41.8266 36.7965 41.8266 36.3832 42.0933 36.1165C42.36 35.8498 42.7733 35.8498 43.04 36.1165L45.9466 39.0232C46.2133 39.2898 46.2133 39.7032 45.9466 39.9698C45.8133 40.1032 45.64 40.1698 45.4666 40.1698Z" fill="#30373E"/><path d="M59.9333 25.7033C59.76 25.7033 59.5867 25.6366 59.4667 25.5033L56.56 22.5966C56.2933 22.33 56.2933 21.9166 56.56 21.65C56.8267 21.3833 57.24 21.3833 57.5066 21.65L60.4133 24.5566C60.68 24.8233 60.68 25.2366 60.4133 25.5033C60.2667 25.6366 60.1067 25.7033 59.9333 25.7033Z" fill="#30373E"/><path d="M16.5466 42.6766H8.33329C7.95996 42.6766 7.66663 42.3833 7.66663 42.01V0.943278C7.66663 0.569945 7.95996 0.276611 8.33329 0.276611H16.5466C16.92 0.276611 17.2133 0.569945 17.2133 0.943278V42.01C17.2133 42.3833 16.9066 42.6766 16.5466 42.6766ZM8.99996 41.3433H15.88V1.60994H8.99996V41.3433Z" fill="#30373E"/><path d="M16.5467 5.10335H13.3067C12.9333 5.10335 12.64 4.81002 12.64 4.43669C12.64 4.06335 12.9333 3.77002 13.3067 3.77002H16.5467C16.92 3.77002 17.2133 4.06335 17.2133 4.43669C17.2133 4.81002 16.9067 5.10335 16.5467 5.10335Z" fill="#30373E"/><path d="M16.5466 8.88997H14.92C14.5466 8.88997 14.2533 8.59664 14.2533 8.22331C14.2533 7.84997 14.5466 7.55664 14.92 7.55664H16.5333C16.9066 7.55664 17.2 7.84997 17.2 8.22331C17.2 8.59664 16.9066 8.88997 16.5466 8.88997Z" fill="#30373E"/><path d="M16.5467 12.6766H13.3067C12.9333 12.6766 12.64 12.3833 12.64 12.0099C12.64 11.6366 12.9333 11.3433 13.3067 11.3433H16.5467C16.92 11.3433 17.2133 11.6366 17.2133 12.0099C17.2133 12.3833 16.9067 12.6766 16.5467 12.6766Z" fill="#30373E"/><path d="M16.5466 16.4635H14.92C14.5466 16.4635 14.2533 16.1701 14.2533 15.7968C14.2533 15.4235 14.5466 15.1301 14.92 15.1301H16.5333C16.9066 15.1301 17.2 15.4235 17.2 15.7968C17.2 16.1701 16.9066 16.4635 16.5466 16.4635Z" fill="#30373E"/><path d="M16.5467 20.2501H13.3067C12.9333 20.2501 12.64 19.9567 12.64 19.5834C12.64 19.2101 12.9333 18.9167 13.3067 18.9167H16.5467C16.92 18.9167 17.2133 19.2101 17.2133 19.5834C17.2133 19.9567 16.9067 20.2501 16.5467 20.2501Z" fill="#30373E"/><path d="M16.5466 24.0367H14.92C14.5466 24.0367 14.2533 23.7434 14.2533 23.37C14.2533 22.9967 14.5466 22.7034 14.92 22.7034H16.5333C16.9066 22.7034 17.2 22.9967 17.2 23.37C17.2133 23.7434 16.9066 24.0367 16.5466 24.0367Z" fill="#30373E"/><path d="M16.5467 27.8233H13.3067C12.9333 27.8233 12.64 27.53 12.64 27.1567C12.64 26.7833 12.9333 26.49 13.3067 26.49H16.5467C16.92 26.49 17.2133 26.7833 17.2133 27.1567C17.2133 27.53 16.9067 27.8233 16.5467 27.8233Z" fill="#30373E"/><path d="M16.5466 31.6099H14.92C14.5466 31.6099 14.2533 31.3166 14.2533 30.9433C14.2533 30.5699 14.5466 30.2766 14.92 30.2766H16.5333C16.9066 30.2766 17.2 30.5699 17.2 30.9433C17.2 31.3166 16.9066 31.6099 16.5466 31.6099Z" fill="#30373E"/><path d="M16.5467 35.41H13.3067C12.9333 35.41 12.64 35.1167 12.64 34.7433C12.64 34.37 12.9333 34.0767 13.3067 34.0767H16.5467C16.92 34.0767 17.2133 34.37 17.2133 34.7433C17.2133 35.1167 16.9067 35.41 16.5467 35.41Z" fill="#30373E"/><path d="M16.5466 39.1966H14.92C14.5466 39.1966 14.2533 38.9033 14.2533 38.5299C14.2533 38.1566 14.5466 37.8633 14.92 37.8633H16.5333C16.9066 37.8633 17.2 38.1566 17.2 38.5299C17.2 38.9033 16.9066 39.1966 16.5466 39.1966Z" fill="#30373E"/></svg>