<svg xmlns="http://www.w3.org/2000/svg" width="54" height="48" viewBox="0 0 54 48" fill="none"><path d="M38.8763 0H11.8718H11.7208L7 2.61327V3.60486L11.7314 6.04951H11.8718H38.8763C40.031 6.04951 40.9704 5.11015 40.9704 3.95544V2.09407C40.9704 0.939358 40.031 0 38.8763 0ZM11.8718 4.55074L9.03266 3.08373L11.8718 1.51208V4.55074ZM34.7979 4.65346H13.2679V1.39605H34.798V4.65346H34.7979ZM39.5743 3.95544C39.5743 4.34034 39.2612 4.65346 38.8763 4.65346H36.1941V1.39605H38.8763C39.2612 1.39605 39.5743 1.70917 39.5743 2.09407V3.95544Z" fill="#30373E"/><circle cx="13" cy="34.53" r="13" fill="#B19777"/><path d="M47.7062 4.32788C44.4781 4.32788 41.811 6.77537 41.4626 9.91207H7V47.0001H47.7062C51.1703 47.0001 53.9885 44.182 53.9885 40.7179V10.61C53.9885 7.14595 51.1702 4.32788 47.7062 4.32788ZM47.7062 45.6041H8.39605V11.308H41.424V40.7179C41.424 42.899 43.1984 44.6734 45.3795 44.6734H46.0775V36.1119C46.5872 35.9311 47.1353 35.8318 47.7062 35.8318C50.4005 35.8318 52.5924 38.0236 52.5924 40.7179C52.5924 43.4123 50.4004 45.6041 47.7062 45.6041ZM42.8201 40.7179C42.8201 39.1653 43.5489 37.7804 44.6814 36.8849V43.1807C43.6083 42.8761 42.8201 41.8874 42.8201 40.7179ZM52.5924 36.7754C51.4397 35.3497 49.6781 34.4358 47.7062 34.4358C45.7349 34.4358 43.9728 35.3485 42.8201 36.7735V11.308V10.61C42.8201 7.91576 45.0119 5.72384 47.7062 5.72384C50.4006 5.72384 52.5924 7.91567 52.5924 10.61V36.7754Z" fill="#30373E"/><path d="M32.1289 23.9188V21.1267H22.7289V19.7307H29.2437V13.6812H14.818V19.7307H21.3328V21.1267H11.6536V40.5782H17.005V39.1822H13.0496V34.0634H17.005V32.6673H13.0496V22.5228H30.7328V23.9188H24.218V29.9683H38.6437V23.9188H32.1289ZM16.214 18.3347V15.0773H27.8477V18.3347H16.214ZM37.2476 28.5723H25.614V25.3149H37.2477V28.5723H37.2476Z" fill="#30373E"/><path d="M32.8266 32.6672H19.7969V34.0633H32.8266V32.6672Z" fill="#30373E"/><path d="M29.1038 35.4595H27.7078V36.8555H29.1038V35.4595Z" fill="#30373E"/><path d="M26.3117 35.4595H24.9156V36.8555H26.3117V35.4595Z" fill="#30373E"/><path d="M23.5196 35.4595H19.7969V36.8555H23.5196V35.4595Z" fill="#30373E"/><path d="M32.8266 39.1824H19.7969V40.5784H32.8266V39.1824Z" fill="#30373E"/><path d="M29.1038 41.9744H27.7078V43.3704H29.1038V41.9744Z" fill="#30373E"/><path d="M26.3117 41.9744H24.9156V43.3704H26.3117V41.9744Z" fill="#30373E"/><path d="M23.5196 41.9744H19.7969V43.3704H23.5196V41.9744Z" fill="#30373E"/></svg>